# xmcd
#
# Track frame offsets:
#	150
#	23314
#	47013
#	66137
#	77682
#	91724
#	110029
#	123831
#	147685
#	175140
#	197348
#	223851
#	239721
#	258098
#	272430
#	301565
#
# Disc length: 4384 seconds
#
# Revision: 1
# Processed by: cddbd v1.5.2PL0 Copyright (c) Steve Scherf et al.
# Submitted via: audiograbber 1.83.01
#
DISCID=d0111e10
DTITLE=Various Artist - ASK-69 Disc 2
DYEAR=1900
DGENRE=Karaoke
TTITLE0=Lynyrd Skynyrd - Saturday Night Special
TTITLE1=Lynyrd Skynyrd - Sweet Home Alabama
TTITLE2=Molly Hatchet - Dreams I'll Never See
TTITLE3=Mountain - Mississippi Queen
TTITLE4=Ozark Mountain Daredevils - If You Wanna Get To Heaven
TTITLE5=Ozark Mountain Daredevils - Jackie Blue
TTITLE6=Allman Brothers Band, The - Midnight Rider
TTITLE7=Allman Brothers Band, The - Ramblin' Man
TTITLE8=Marshall Tucker Band, The - Can't You See
TTITLE9=Marshall Tucker Band, The - Heard It In A Love Song
TTITLE10=Outlaws, The - Ghost Riders In The Sky
TTITLE11=Outlaws, The - Green Grass And High Tides
TTITLE12=Outlaws, The - Hurry Sundown
TTITLE13=Outlaws, The - There Goes Another Love Song
TTITLE14=Wet Willie - Keep On Smilin'
TTITLE15=Data - Data Track
EXTD=
EXTT0=
EXTT1=
EXTT2=
EXTT3=
EXTT4=
EXTT5=
EXTT6=
EXTT7=
EXTT8=
EXTT9=
EXTT10=
EXTT11=
EXTT12=
EXTT13=
EXTT14=
EXTT15=
PLAYORDER=
